<?xml version="1.0" standalone="no"?>
<!DOCTYPE svg PUBLIC "-//W3C//DTD SVG 20010904//EN"
 "http://www.w3.org/TR/2001/REC-SVG-20010904/DTD/svg10.dtd">
<svg version="1.0" xmlns="http://www.w3.org/2000/svg"
 width="539.000000pt" height="614.000000pt" viewBox="0 0 539.000000 614.000000"
 preserveAspectRatio="xMidYMid meet">

<g transform="translate(0.000000,614.000000) scale(0.100000,-0.100000)"
fill="#000000" stroke="none">
<path d="M1255 5781 c-55 -13 -106 -41 -150 -85 -39 -39 -44 -50 -55 -117 -18
-115 -19 -117 -42 -138 -15 -14 -18 -24 -11 -33 5 -7 20 -42 33 -78 13 -36 34
-81 46 -100 45 -68 74 -249 46 -283 -7 -8 -31 -19 -54 -26 -24 -7 -50 -19 -58
-26 -8 -8 -26 -19 -40 -25 -14 -6 -47 -26 -74 -45 -29 -20 -73 -39 -105 -46
-48 -10 -63 -19 -104 -63 -93 -100 -153 -272 -128 -371 9 -35 14 -192 14 -420
0 -43 -32 -124 -58 -145 -8 -7 -15 -18 -15 -24 0 -6 -6 -23 -14 -37 -7 -14
-19 -50 -26 -80 -7 -30 -17 -62 -22 -72 -5 -10 -12 -59 -15 -110 -3 -50 -9
-100 -14 -109 -5 -9 -9 -26 -9 -38 0 -11 -11 -42 -24 -68 -13 -26 -34 -82 -46
-124 -19 -66 -28 -81 -56 -97 -18 -11 -44 -37 -57 -58 -13 -21 -32 -44 -41
-52 -9 -7 -30 -38 -47 -67 -17 -30 -39 -59 -50 -64 -42 -23 1 -73 45 -52 32
14 76 32 82 32 2 0 4 -45 3 -101 -1 -94 1 -103 24 -127 13 -15 27 -35 30 -45
9 -25 35 -32 55 -14 9 8 31 22 49 31 47 24 131 111 142 149 13 42 39 117 50
142 23 51 33 113 22 133 -20 37 -13 96 16 138 14 21 44 77 65 124 22 47 48 94
58 105 17 19 50 76 92 158 11 22 21 37 24 35 2 -3 -2 -34 -10 -69 -13 -57 -39
-205 -66 -374 -12 -81 -2 -267 21 -390 11 -55 24 -131 29 -170 13 -95 21 -123
85 -305 49 -137 67 -293 41 -347 -22 -44 -58 -193 -62 -253 -3 -54 11 -110 57
-235 11 -28 19 -60 19 -72 0 -22 20 -104 39 -158 23 -66 54 -213 53 -255 0
-25 -1 -72 -2 -104 0 -37 -7 -69 -18 -85 -25 -38 -48 -90 -67 -148 -9 -28 -23
-57 -32 -64 -12 -11 -14 -25 -8 -73 8 -74 48 -130 97 -140 151 -28 208 -25
243 14 24 26 44 128 46 230 1 75 13 153 19 125 1 -5 2 -74 1 -152 -3 -223 16
-260 119 -241 30 5 70 9 88 9 17 -1 42 4 55 10 32 17 87 71 87 86 0 8 7 25 16
38 15 23 15 25 0 25 -12 0 -16 9 -16 34 0 19 -4 38 -10 41 -5 3 -10 14 -10 23
0 9 -14 53 -31 97 -42 107 -49 247 -19 375 66 281 82 346 90 355 9 11 26 72
35 125 3 19 9 49 14 65 8 33 6 109 -5 134 -3 9 -12 58 -18 110 -17 127 -4 284
29 364 14 32 25 66 25 76 0 9 12 42 26 72 33 66 45 110 89 319 32 155 46 383
30 525 -26 244 -31 311 -24 319 5 5 10 8 11 5 9 -14 66 -125 133 -257 l78
-154 -8 -71 c-4 -40 -7 -76 -7 -82 2 -41 22 -128 39 -170 12 -27 24 -63 28
-79 3 -16 29 -55 57 -85 74 -81 149 -114 163 -71 4 11 17 32 29 48 19 22 24
44 30 127 4 54 9 101 11 103 2 3 20 -7 40 -22 38 -29 62 -31 78 -5 7 12 0 34
-28 90 -21 41 -44 86 -52 101 -8 15 -38 52 -68 82 -30 31 -55 62 -55 69 0 7
-12 47 -26 88 -14 41 -32 98 -40 128 -8 30 -20 61 -26 68 -6 7 -12 41 -14 76
-5 96 -14 155 -35 236 -22 82 -27 93 -76 166 -28 43 -33 60 -34 115 -3 135 9
377 20 419 14 48 9 94 -14 138 -8 15 -15 35 -15 44 0 33 -73 160 -100 174 -15
8 -32 20 -38 28 -7 8 -34 20 -60 27 -26 7 -78 32 -117 54 -70 41 -96 56 -167
96 -48 26 -64 52 -72 117 -7 59 10 113 91 281 41 85 44 94 30 115 -8 12 -20
53 -26 91 -7 38 -19 82 -26 97 -22 41 -113 129 -134 129 -10 0 -24 6 -30 14
-20 23 -147 40 -206 27z m150 -41 c22 -11 45 -19 51 -20 6 0 32 -16 57 -35 65
-49 94 -104 103 -190 4 -38 14 -80 22 -93 13 -21 13 -25 -6 -45 -12 -13 -28
-43 -36 -68 -60 -185 -78 -209 -184 -233 -88 -20 -98 -20 -160 0 -60 20 -83
43 -104 104 -9 25 -28 74 -44 110 -22 52 -28 81 -28 145 -2 234 68 321 279
343 6 1 28 -7 50 -18z m-196 -694 c23 -19 78 -36 119 -36 36 0 81 12 141 38
43 18 51 8 51 -75 0 -61 1 -63 27 -63 14 0 48 -14 74 -30 26 -17 70 -39 98
-49 102 -36 135 -98 39 -72 -54 14 -96 15 -178 2 -90 -14 -123 -25 -128 -40
-4 -11 2 -12 24 -7 58 14 237 25 260 15 14 -5 50 -11 82 -14 31 -3 82 -9 112
-13 l55 -7 39 -80 c79 -163 78 -160 72 -217 -12 -115 -23 -328 -22 -428 2
-109 8 -128 54 -180 12 -14 27 -43 33 -65 6 -22 19 -65 29 -95 11 -30 23 -104
29 -165 6 -68 19 -140 35 -188 14 -43 26 -86 26 -97 0 -10 4 -21 9 -24 5 -3
12 -23 16 -43 8 -45 49 -111 105 -171 22 -24 50 -61 63 -83 12 -23 30 -55 39
-72 10 -17 14 -35 9 -40 -16 -16 -58 15 -79 57 -17 37 -26 44 -59 49 -21 4
-47 7 -58 7 -19 -1 -19 -2 4 -20 13 -11 36 -20 52 -20 21 0 29 -5 30 -17 3
-87 0 -233 -5 -242 -18 -28 -28 -9 -23 42 3 34 0 61 -9 79 -8 15 -11 34 -7 44
4 12 2 15 -8 12 -17 -6 -15 -89 2 -155 13 -48 5 -93 -15 -93 -15 0 -21 26 -32
128 -4 34 -11 65 -15 68 -5 3 -9 16 -9 30 0 15 -6 24 -15 24 -13 0 -15 -9 -9
-52 4 -29 13 -67 21 -85 16 -41 17 -86 1 -81 -7 3 -16 20 -21 39 -11 42 -13
45 -30 30 -17 -14 -31 0 -40 39 -3 14 -13 44 -21 68 -24 65 -37 177 -30 258
l7 71 -56 114 c-52 104 -82 157 -166 292 -35 56 -76 247 -66 307 4 25 0 55
-14 93 -19 57 -19 57 0 149 15 66 22 145 25 268 4 191 -3 265 -26 265 -12 0
-15 -33 -16 -205 -1 -148 -6 -226 -18 -280 -9 -41 -16 -90 -16 -107 0 -20 -8
-41 -21 -54 -47 -47 -151 8 -250 131 -74 91 -96 169 -74 256 11 42 10 52 -6
77 -13 23 -15 35 -7 58 14 41 3 79 -23 79 -18 0 -20 -5 -16 -27 3 -15 1 -35
-3 -44 -6 -10 -3 -26 6 -45 17 -32 14 -85 -10 -154 -11 -33 -12 -42 -1 -46 7
-3 23 -32 35 -65 12 -34 32 -70 46 -81 13 -12 36 -39 50 -60 45 -64 139 -118
206 -118 29 0 29 0 22 -50 -5 -37 -3 -56 9 -73 8 -13 20 -43 27 -66 l11 -42
-50 -47 c-28 -27 -53 -60 -57 -77 -11 -48 -81 -132 -152 -181 -64 -45 -65 -45
-168 -51 -117 -7 -141 0 -219 60 -27 21 -68 53 -91 70 -26 20 -50 53 -68 89
-15 33 -39 65 -54 75 -59 36 -65 69 -31 155 12 29 22 71 22 92 2 41 7 45 71
66 87 28 211 147 276 266 l33 60 -19 40 c-21 43 -21 44 -23 79 -1 29 -29 45
-42 24 -11 -18 -3 -72 19 -122 15 -36 15 -41 -4 -75 -18 -35 -166 -190 -229
-239 -28 -23 -98 -32 -109 -15 -19 31 -57 545 -45 601 10 44 1 91 -17 91 -26
0 -35 -50 -28 -164 3 -61 8 -160 9 -221 2 -60 8 -149 14 -197 10 -74 10 -95
-4 -133 -16 -49 -18 -88 -6 -120 5 -11 4 -31 0 -43 -5 -13 -12 -52 -15 -85 -6
-73 -18 -107 -56 -165 -15 -24 -28 -47 -28 -52 0 -5 -17 -30 -37 -57 -56 -72
-173 -293 -173 -327 0 -10 5 -35 11 -55 9 -30 7 -53 -10 -126 -12 -50 -30
-108 -40 -130 -11 -22 -22 -50 -26 -62 -3 -13 -10 -23 -15 -23 -10 0 5 48 27
90 17 33 16 55 -1 69 -19 16 -29 -3 -47 -84 -14 -67 -62 -161 -67 -133 -2 9 2
26 7 37 6 11 11 27 11 36 0 9 7 32 16 50 18 39 15 70 -6 70 -10 0 -19 -19 -27
-60 -19 -94 -38 -150 -48 -145 -6 3 -10 37 -10 75 0 74 -12 91 -32 46 -11 -26
-11 -25 -14 14 -3 48 0 112 6 142 4 17 18 26 56 37 54 17 139 78 139 101 0 29
-23 26 -54 -6 -53 -57 -74 -72 -112 -75 -20 -1 -37 -4 -38 -6 -27 -41 -71 -88
-82 -88 -43 0 12 93 116 199 64 64 82 90 94 132 9 28 20 57 25 63 15 20 71
210 71 244 0 18 4 52 9 75 5 23 17 78 27 122 16 74 59 179 89 215 31 38 36
101 24 310 -18 324 -17 343 21 430 18 41 43 89 57 107 31 40 103 65 184 64 32
-1 66 -1 74 -1 34 2 72 2 103 0 18 -2 35 0 38 3 13 12 -9 27 -39 27 -35 0 -27
16 11 22 29 4 28 24 -1 21 -28 -3 -96 -22 -124 -35 -25 -12 -45 -3 -41 19 3
17 200 123 228 123 27 0 40 30 40 88 0 63 9 74 39 48z m616 -1218 c2 -7 6 -53
9 -103 6 -87 17 -161 31 -197 4 -11 3 -18 -4 -18 -13 0 -15 4 -31 85 -6 33
-17 85 -24 115 -14 57 -11 130 5 130 5 0 12 -6 14 -12z m-934 -5 c0 -5 2 -23
5 -40 2 -18 -4 -53 -14 -78 l-18 -45 -2 68 c-1 37 1 75 4 85 5 17 23 24 25 10z
m50 -329 c19 -23 1 -30 -30 -11 -16 9 -36 17 -45 17 -15 0 -22 30 -10 43 7 6
67 -28 85 -49z m887 -10 c26 -48 57 -430 48 -595 -6 -138 -16 -210 -47 -349
-37 -170 -49 -214 -78 -280 -70 -159 -86 -238 -85 -420 0 -81 5 -139 14 -165
9 -25 14 -75 13 -135 -1 -81 -6 -110 -38 -200 -20 -58 -40 -125 -45 -150 -9
-46 -13 -64 -49 -205 -13 -48 -21 -112 -21 -161 0 -59 -4 -85 -14 -94 -16 -13
-10 -33 29 -100 23 -40 46 -101 50 -135 1 -13 12 -35 24 -50 26 -35 27 -48 1
-40 -14 4 -20 2 -20 -9 0 -8 5 -18 10 -21 6 -3 10 -17 10 -30 0 -20 -6 -24
-52 -30 -29 -4 -61 -14 -70 -22 -25 -22 -46 -9 -50 29 -4 40 -31 46 -36 8 -2
-14 -9 -31 -15 -38 -8 -10 -7 -16 2 -22 8 -4 12 -13 9 -20 -3 -9 -13 -5 -32
12 l-28 24 -5 184 c-8 289 -4 345 31 433 14 34 28 80 32 102 4 22 13 54 20 71
7 17 18 71 24 120 6 49 15 112 21 139 8 45 14 103 34 322 5 65 -4 84 -30 63
-10 -8 -15 -31 -15 -61 0 -26 -5 -95 -11 -151 -34 -336 -53 -463 -68 -453 -5
2 -11 64 -14 138 -4 84 -12 147 -22 171 -13 30 -14 50 -5 114 5 42 14 93 20
112 5 19 16 64 25 99 l16 64 -36 54 -35 53 10 228 c6 125 10 243 10 262 0 19
0 177 0 350 1 259 4 317 16 331 8 8 14 21 14 28 0 7 14 26 32 42 22 22 28 33
20 41 -17 17 -40 2 -70 -46 -25 -42 -52 -60 -52 -36 0 17 -49 62 -60 55 -15
-9 -13 -18 22 -71 l33 -49 -3 -245 c-3 -252 -6 -293 -27 -345 -9 -22 -10 -44
-2 -85 12 -66 20 -231 18 -355 -1 -76 -6 -100 -31 -156 l-30 -66 20 -86 c11
-47 27 -102 36 -123 18 -42 13 -121 -11 -177 -7 -18 -16 -87 -20 -155 -4 -70
-11 -120 -16 -115 -13 13 -30 149 -34 271 -2 56 -11 143 -20 192 -8 50 -13
101 -9 114 4 17 -1 30 -17 45 -13 11 -27 21 -31 21 -15 0 -20 -28 -9 -48 6
-11 13 -51 16 -89 8 -90 11 -112 18 -148 4 -16 11 -91 17 -165 12 -152 36
-285 56 -315 8 -11 14 -29 14 -40 0 -11 7 -38 15 -60 17 -47 20 -192 4 -232
-5 -15 -11 -88 -12 -161 -2 -126 -3 -135 -25 -152 -12 -10 -20 -25 -17 -33 7
-17 -20 -41 -36 -32 -7 5 -10 27 -7 62 3 29 1 56 -3 58 -8 6 -49 -77 -49 -100
0 -17 -26 -20 -36 -4 -3 6 2 28 11 49 10 22 15 46 11 56 -10 27 -33 -1 -41
-51 -5 -34 -11 -45 -24 -45 -31 0 -60 43 -72 104 -10 55 -9 60 15 95 14 20 26
44 26 52 0 13 44 113 71 162 16 30 23 191 9 229 -7 18 -16 51 -20 73 -5 22
-14 58 -20 80 -16 57 -28 109 -44 197 -8 42 -21 89 -29 105 -7 15 -19 55 -26
88 -7 33 -16 74 -20 90 -4 17 -1 53 7 85 48 194 60 280 50 353 -15 110 -38
206 -59 244 -10 18 -22 52 -25 76 -4 23 -10 47 -15 52 -16 21 -54 219 -74 385
-16 139 -12 273 15 451 11 74 20 153 20 177 0 83 29 102 85 55 18 -16 52 -44
76 -63 24 -19 61 -51 84 -71 91 -83 176 -109 301 -90 119 18 155 39 282 170
62 63 107 118 101 120 -6 2 -15 -2 -19 -9 -5 -8 -10 -9 -14 -1 -4 5 3 20 15
32 20 20 21 20 39 2 9 -11 22 -28 28 -39z m-472 -1731 c7 -51 -15 -179 -31
-176 -5 1 -17 37 -26 80 -16 79 -12 130 14 161 16 20 34 -9 43 -65z m-9 -510
c13 -152 10 -322 -6 -370 -8 -24 -17 -43 -21 -43 -10 0 -28 65 -36 129 -9 71
25 381 42 381 8 0 15 -33 21 -97z"/>
<path d="M1161 5427 c-8 -11 -3 -22 26 -50 20 -21 41 -37 46 -37 20 0 67 42
67 61 0 19 -8 23 -47 20 -11 -1 -24 3 -28 8 -9 15 -50 14 -64 -2z"/>
<path d="M1418 5433 c-38 -6 -47 -21 -49 -83 -3 -97 -6 -103 -50 -96 -39 6
-48 -1 -28 -21 14 -14 91 -5 105 13 7 8 9 35 6 65 -5 50 -4 52 18 46 31 -8 69
12 76 39 11 42 -4 48 -78 37z"/>
<path d="M1302 5164 c6 -31 35 -40 58 -19 20 18 20 20 3 26 -34 14 -65 10 -61
-7z"/>
<path d="M1125 4801 c-3 -6 -1 -12 4 -12 34 -4 41 -3 44 6 3 14 -40 19 -48 6z"/>
<path d="M1491 4799 c-41 -16 -10 -28 54 -20 58 7 59 8 32 19 -33 14 -53 14
-86 1z"/>
<path d="M1190 4791 c0 -5 12 -12 26 -15 15 -4 34 -16 43 -27 22 -27 123 -30
151 -4 18 16 28 45 15 45 -12 0 -55 -24 -55 -32 0 -14 -28 -9 -86 17 -58 26
-94 32 -94 16z"/>
<path d="M1140 4741 c0 -11 36 -21 75 -21 29 1 29 1 11 15 -21 16 -86 21 -86
6z"/>
<path d="M1180 4676 c0 -7 7 -19 15 -26 9 -7 14 -19 11 -27 -8 -21 5 -44 30
-54 31 -11 30 -33 -2 -54 -24 -15 -25 -21 -19 -63 6 -46 28 -92 43 -92 4 0 14
4 22 10 12 7 12 12 -4 29 -13 14 -15 24 -8 38 5 10 8 32 5 49 -3 19 1 35 10
43 14 11 13 18 -10 64 -29 59 -60 97 -80 97 -7 0 -13 -6 -13 -14z"/>
<path d="M1437 4650 c-23 -20 -33 -37 -30 -48 2 -10 -3 -24 -11 -31 -19 -16
-21 -42 -4 -59 17 -17 28 -15 28 7 0 10 9 29 19 43 12 15 18 33 15 45 -4 13 2
28 16 41 36 33 4 35 -33 2z"/>
<path d="M994 4345 c-15 -38 59 -63 86 -30 17 20 5 31 -43 39 -29 5 -39 3 -43
-9z"/>
<path d="M1630 4325 c-10 -12 -9 -16 3 -21 26 -10 62 0 65 19 3 13 -3 17 -26
17 -16 0 -35 -7 -42 -15z"/>
<path d="M1326 4112 c-11 -10 -6 -40 7 -44 20 -8 37 2 37 22 0 17 -33 34 -44
22z"/>
<path d="M1305 3710 c-10 -11 -15 -26 -11 -36 5 -13 14 -15 49 -10 23 4 49 14
57 22 13 14 13 17 -4 30 -28 20 -70 17 -91 -6z"/>
<path d="M2195 2740 c-8 -27 10 -49 26 -33 13 13 8 45 -8 50 -6 2 -14 -6 -18
-17z"/>
<path d="M1185 2002 c-16 -11 -18 -92 -2 -92 21 0 37 22 37 51 0 29 -20 52
-35 41z"/>
<path d="M1440 1983 c-8 -16 -15 -31 -17 -34 -6 -13 39 -59 58 -59 23 0 24 9
3 38 -13 19 -13 26 -3 38 18 21 54 14 53 -11 -1 -11 -5 -28 -9 -37 -11 -28 20
-22 44 8 16 21 18 30 9 49 -12 26 -34 35 -89 35 -29 0 -38 -5 -49 -27z"/>
<path d="M1080 1979 c-9 -16 -8 -26 5 -45 18 -28 28 -30 45 -9 10 12 10 21 0
45 -14 35 -35 39 -50 9z"/>
<path d="M1105 1800 c-13 -20 12 -35 42 -24 15 5 27 14 27 19 1 14 -61 18 -69
5z"/>
<path d="M1010 375 c-10 -12 -10 -19 -1 -28 9 -9 14 -9 21 3 22 34 4 54 -20
25z"/>
<path d="M1497 365 c-4 -9 -1 -18 9 -22 22 -8 30 5 12 23 -14 14 -16 14 -21
-1z"/>
<path d="M1556 366 c7 -19 38 -22 32 -3 -3 6 -12 13 -21 15 -12 2 -15 -1 -11
-12z"/>
<path d="M3910 5761 c-52 -8 -116 -48 -149 -92 -37 -50 -71 -132 -71 -172 0
-22 -8 -49 -21 -66 -20 -27 -20 -30 -4 -83 8 -31 31 -73 50 -95 39 -46 55 -81
55 -122 0 -15 5 -32 10 -37 16 -16 19 -131 4 -153 -14 -19 -128 -91 -146 -91
-6 0 -27 -10 -47 -22 -88 -56 -105 -64 -146 -73 -60 -13 -172 -165 -195 -264
-9 -37 -10 -81 -5 -140 4 -47 9 -144 10 -216 1 -71 7 -150 13 -174 12 -48 -3
-108 -37 -146 -47 -53 -91 -194 -106 -340 -3 -27 -7 -63 -9 -80 -6 -44 -57
-238 -66 -250 -4 -5 -11 -26 -15 -45 -5 -25 -29 -56 -85 -112 -48 -48 -92
-104 -115 -145 -20 -37 -47 -78 -58 -91 -21 -23 -21 -24 -4 -37 16 -11 26 -11
62 2 24 8 49 21 56 29 24 29 29 11 29 -101 0 -104 2 -116 23 -139 12 -13 28
-31 35 -40 20 -25 34 -20 101 34 34 28 67 50 72 50 5 0 9 9 9 21 0 11 9 28 20
37 11 10 36 60 56 112 37 98 37 94 32 270 -1 33 7 61 29 105 18 33 52 101 78
150 41 81 67 123 116 187 15 20 15 17 7 -43 -5 -35 -11 -75 -13 -89 -22 -123
-26 -484 -7 -615 20 -135 49 -277 70 -345 41 -130 66 -196 86 -224 37 -54 41
-333 5 -397 -10 -17 -14 -60 -13 -144 0 -104 3 -126 22 -162 12 -23 22 -52 22
-63 0 -24 33 -165 55 -231 8 -26 15 -55 15 -65 0 -20 22 -94 47 -155 16 -40
13 -72 -21 -202 -14 -54 -31 -95 -44 -108 -12 -11 -22 -26 -22 -34 0 -8 -11
-35 -25 -61 -28 -53 -30 -66 -12 -96 18 -32 89 -99 115 -109 12 -5 46 -9 75
-10 28 0 67 -1 86 -2 43 -1 81 39 81 87 0 34 23 76 36 64 4 -4 9 -30 12 -57 3
-40 10 -53 34 -71 28 -21 35 -21 99 -12 59 9 77 17 120 52 90 76 103 137 52
241 -97 197 -121 292 -89 361 8 18 20 60 26 94 6 33 19 79 30 101 11 23 22 60
25 84 4 24 10 53 14 64 5 11 16 47 26 80 9 33 21 73 26 89 15 50 10 173 -13
284 -19 98 -20 116 -10 212 7 58 12 125 12 149 0 24 7 55 15 69 16 30 43 105
81 232 25 82 38 147 69 335 17 103 20 370 5 454 -17 98 -41 303 -36 308 2 3
21 -28 41 -69 21 -40 43 -84 51 -98 7 -14 19 -37 26 -52 7 -14 38 -68 68 -120
l55 -93 0 -116 0 -116 60 -121 c33 -67 65 -122 72 -122 7 0 16 -7 20 -15 14
-24 75 -65 98 -65 13 0 35 16 55 41 33 41 33 43 34 145 0 57 1 104 3 104 1 0
21 -9 43 -21 33 -17 43 -19 55 -9 19 16 19 34 1 52 -7 8 -17 28 -20 45 -4 18
-37 63 -79 109 -122 133 -133 158 -192 454 -14 69 -25 141 -25 160 0 66 -44
187 -95 259 l-30 43 0 302 c-1 330 1 317 -68 455 -38 77 -81 111 -149 122 -28
5 -54 12 -57 17 -8 13 -117 68 -171 87 -50 17 -94 55 -117 99 -12 23 -13 48
-8 124 8 107 14 129 44 156 21 19 61 113 61 143 0 9 -7 21 -15 27 -8 6 -19 35
-25 64 -36 193 -189 304 -380 273z m129 -32 c118 -27 211 -142 211 -263 0 -41
5 -65 16 -77 12 -13 15 -28 10 -54 -6 -28 -11 -35 -31 -35 -13 0 -27 -5 -31
-12 -27 -43 -43 -266 -23 -307 15 -29 89 -111 101 -111 9 0 74 -28 158 -68 67
-32 92 -54 90 -78 -4 -35 0 -36 31 -10 17 14 35 26 40 26 18 0 68 -63 80 -99
7 -19 23 -56 36 -82 23 -47 45 -137 37 -150 -2 -4 -5 -121 -6 -261 l-2 -253
46 -68 c27 -40 49 -86 53 -110 4 -23 11 -50 17 -59 5 -10 15 -64 24 -120 8
-57 19 -123 24 -148 5 -25 14 -72 19 -104 5 -33 16 -73 24 -90 29 -60 47 -107
47 -119 0 -6 33 -43 73 -81 39 -38 82 -88 94 -110 12 -23 27 -51 34 -64 16
-29 8 -36 -24 -21 -23 10 -48 47 -61 92 -3 9 -11 17 -17 17 -8 0 -9 -24 -4
-87 9 -94 9 -98 -1 -156 -7 -41 -29 -46 -30 -6 -1 72 -34 132 -34 63 0 -21 -5
-24 -34 -24 -19 0 -41 -3 -50 -6 -11 -4 -17 2 -22 23 -10 42 -16 49 -25 25 -5
-13 -14 -19 -22 -16 -19 7 -66 148 -61 182 19 141 20 131 -36 233 -29 51 -69
123 -88 159 -19 36 -42 74 -52 85 -33 37 -78 129 -89 185 -6 30 -13 100 -15
155 -2 65 -9 114 -20 140 -21 48 -20 222 1 294 7 24 14 73 15 109 3 56 0 67
-14 70 -15 3 -18 -4 -18 -50 0 -29 -10 -87 -21 -128 -12 -47 -20 -106 -20
-157 0 -47 -6 -100 -14 -124 -25 -69 -17 -169 12 -169 12 0 14 9 8 48 -7 53 9
112 26 95 6 -6 13 -64 16 -129 2 -66 9 -123 14 -128 12 -13 11 -46 -1 -46 -5
0 -10 12 -10 26 0 56 -125 142 -209 145 l-54 2 -59 -64 c-87 -93 -114 -151
-110 -235 2 -41 33 -80 56 -71 15 6 15 9 0 44 -9 21 -18 46 -21 55 -9 29 42
122 99 182 54 55 57 57 104 55 73 -4 132 -48 161 -122 23 -57 43 -161 49 -247
1 -25 5 -63 9 -85 21 -130 22 -303 4 -443 -10 -78 -20 -146 -23 -150 -2 -4 -7
-34 -11 -67 -5 -56 -101 -370 -127 -418 -6 -12 -15 -69 -20 -127 -4 -58 -11
-126 -14 -151 -4 -28 0 -65 9 -96 9 -28 13 -54 10 -56 -2 -3 1 -15 7 -28 15
-27 15 -183 0 -259 -7 -30 -20 -80 -31 -111 -10 -30 -19 -62 -19 -70 0 -31
-22 -90 -40 -107 -24 -22 -76 -171 -83 -237 -4 -40 -2 -56 14 -75 10 -14 19
-35 19 -47 0 -12 14 -49 30 -81 17 -33 30 -66 30 -74 0 -9 8 -26 19 -39 25
-32 34 -88 20 -127 -15 -44 -110 -93 -151 -78 -31 11 -48 2 -30 -16 16 -16 15
-47 -2 -54 -20 -8 -56 13 -56 33 0 9 8 22 18 29 16 13 16 13 0 14 -49 1 -65
110 -29 193 23 53 43 60 72 23 20 -26 56 -39 65 -25 9 15 -15 38 -61 59 -44
20 -56 43 -71 137 -5 34 -2 47 16 73 20 28 22 39 16 96 -4 35 -11 76 -17 91
-18 49 -31 190 -20 212 9 16 6 29 -11 63 -19 35 -23 61 -25 143 -2 73 2 103
12 115 17 19 34 92 36 156 1 36 -5 62 -25 98 -25 47 -26 55 -26 212 0 90 5
186 11 213 8 38 8 63 -1 98 -12 47 -15 587 -4 605 3 4 20 0 37 -9 23 -12 57
-17 117 -17 139 0 233 35 216 79 -5 15 -9 14 -34 -4 -72 -51 -192 -65 -287
-33 l-50 17 3 53 c2 41 -1 54 -14 59 -21 8 -34 -13 -34 -59 0 -38 -15 -53 -82
-87 -36 -18 -168 -10 -200 12 -13 9 -32 23 -43 32 -12 8 -25 11 -33 6 -21 -13
5 -46 52 -68 55 -24 208 -25 251 0 17 9 38 17 49 17 16 0 18 -6 12 -42 -3 -24
-8 -151 -12 -283 -3 -132 -10 -256 -15 -275 -6 -23 -4 -51 6 -90 17 -66 16
-419 -2 -442 -32 -41 -33 -147 -4 -253 6 -22 12 -82 12 -133 0 -77 -4 -100
-22 -131 -15 -28 -19 -43 -12 -57 9 -18 10 -47 5 -150 -1 -24 -10 -50 -22 -64
-12 -14 -18 -31 -15 -39 4 -9 9 -41 12 -71 3 -35 14 -68 31 -93 24 -36 24 -40
13 -92 -10 -46 -18 -57 -49 -76 -50 -30 -82 -60 -82 -76 0 -21 17 -15 53 17
19 17 41 30 49 30 32 0 56 -221 28 -255 -9 -11 -35 -15 -101 -15 -82 0 -89 -2
-89 -20 0 -12 -7 -20 -16 -20 -13 0 -15 7 -10 35 7 35 -9 51 -20 20 -9 -22
-23 -18 -36 10 -8 19 -8 28 2 40 8 9 10 27 6 48 -5 27 0 42 24 78 16 24 30 50
30 57 0 7 7 27 17 45 16 31 23 54 44 144 8 33 15 43 31 43 18 0 19 4 13 49 -8
60 -57 183 -74 189 -18 6 -5 -52 21 -98 21 -37 30 -118 13 -121 -5 -1 -16 11
-24 27 -15 29 -19 46 -41 159 -6 33 -18 83 -25 110 -8 28 -19 75 -25 105 -6
30 -21 87 -33 125 -28 89 -30 259 -5 350 13 47 16 89 13 198 -4 123 -7 144
-29 185 -42 79 -109 273 -120 342 -2 19 -14 89 -26 155 -31 177 -34 309 -15
570 17 233 31 317 66 391 10 22 19 52 19 66 0 15 5 50 12 78 10 42 9 59 -4 98
-9 28 -16 87 -17 149 -1 56 -7 119 -15 140 -13 38 -32 141 -28 156 4 16 -19
47 -34 47 -13 0 -15 -7 -10 -32 3 -18 10 -58 15 -88 5 -30 14 -68 20 -83 17
-43 14 -221 -4 -264 -10 -23 -15 -69 -15 -132 0 -135 -32 -241 -101 -336 -20
-27 -63 -102 -95 -165 -32 -63 -66 -124 -76 -134 -19 -20 -19 -29 -19 -193 0
-51 -4 -105 -9 -120 -5 -15 -12 -41 -17 -57 -10 -37 -30 -45 -35 -14 -4 32
-24 29 -48 -7 l-20 -30 0 32 c0 30 -15 52 -27 40 -2 -3 -7 -25 -10 -49 -3 -24
-15 -53 -26 -66 -18 -19 -19 -26 -9 -42 17 -28 15 -69 -4 -77 -43 -16 -45 32
-8 206 6 26 4 33 -7 29 -8 -3 -18 -31 -25 -71 -6 -37 -14 -70 -17 -74 -6 -6
-11 70 -12 191 0 61 -19 72 -40 22 -14 -33 -40 -56 -64 -56 -19 0 -12 34 14
72 14 20 25 41 25 46 0 11 127 144 151 158 18 11 54 103 76 194 8 36 24 91 34
123 11 31 19 81 19 110 0 55 40 230 65 284 8 17 15 35 15 39 0 4 11 20 25 34
25 26 51 122 39 142 -3 5 -10 84 -16 176 -5 92 -12 199 -15 239 -7 102 20 190
82 272 26 34 54 65 61 68 7 2 25 -4 41 -14 15 -10 37 -24 48 -29 13 -7 21 -23
23 -45 2 -24 16 -48 46 -79 50 -53 96 -129 96 -160 0 -31 56 -80 91 -80 44 0
74 49 98 160 24 110 26 130 8 130 -13 0 -33 -56 -43 -128 -15 -100 -46 -148
-81 -126 -19 12 -23 18 -57 97 -14 31 -48 81 -76 111 -44 46 -51 59 -48 88 2
28 7 34 31 36 36 4 39 42 3 42 -14 0 -28 -4 -31 -10 -10 -17 -75 -12 -82 6 -8
20 43 67 102 93 232 103 262 144 220 301 -8 30 -15 75 -15 100 0 53 -5 62 -46
83 -19 10 -36 29 -43 48 -14 39 -14 35 3 52 10 9 17 43 20 93 7 120 54 200
140 240 55 26 97 29 165 13z m-455 -1951 c0 -53 -24 -159 -34 -153 -7 4 -3
142 6 183 8 40 29 18 28 -30z m1341 -1099 c8 -23 1 -34 -14 -24 -13 8 -15 45
-2 45 5 0 13 -9 16 -21z m-1765 -50 c0 -19 -5 -29 -14 -29 -21 0 -29 17 -22
45 9 34 36 21 36 -16z m1895 5 c14 -35 7 -74 -14 -74 -15 0 -31 72 -20 92 13
25 17 23 34 -18z m-55 -30 c0 -19 -26 -18 -34 2 -3 9 -6 25 -6 37 1 22 1 22
20 -2 11 -13 20 -29 20 -37z m-1905 -41 c-9 -39 -35 -28 -35 15 0 51 22 74 32
35 5 -15 6 -38 3 -50z m955 -233 c0 -20 -5 -30 -15 -30 -10 0 -15 10 -15 30 0
20 5 30 15 30 10 0 15 -10 15 -30z m9 -533 c11 -28 2 -168 -11 -184 -24 -30
-36 -8 -44 74 -9 96 30 175 55 110z m-9 -534 c0 -25 9 -117 20 -204 20 -148
20 -160 4 -190 -16 -32 -16 -66 2 -157 7 -35 -22 -162 -36 -162 -5 0 -16 24
-25 53 -12 40 -14 59 -6 80 16 42 13 143 -5 179 -22 42 -29 129 -14 170 6 18
13 84 15 145 4 118 7 133 31 133 10 0 14 -13 14 -47z m217 -265 c-3 -8 -6 -5
-6 6 -1 11 2 17 5 13 3 -3 4 -12 1 -19z m43 -623 c0 -9 -9 -15 -25 -15 -14 0
-28 -7 -31 -15 -4 -8 -17 -15 -31 -15 -24 0 -25 1 -11 23 13 19 43 32 86 36 6
0 12 -6 12 -14z m-340 -45 c0 -23 -45 -39 -62 -22 -18 18 -1 42 32 42 23 0 30
-4 30 -20z m-96 1 c9 -15 -23 -36 -36 -23 -5 5 -7 15 -4 21 9 13 33 14 40 2z"/>
<path d="M3937 5543 c-13 -13 -7 -31 13 -36 23 -6 56 16 46 31 -8 13 -48 16
-59 5z"/>
<path d="M3996 4919 c-16 -38 -11 -59 14 -59 28 0 43 25 33 57 -13 39 -31 40
-47 2z"/>
<path d="M4205 4775 c-44 -49 -58 -92 -52 -164 7 -78 11 -98 20 -107 4 -4 7
-22 7 -40 0 -51 44 -142 75 -156 22 -10 32 -9 59 6 26 14 41 35 67 94 19 42
53 99 77 126 48 57 58 83 45 122 -16 48 -33 41 -33 -14 0 -42 -5 -54 -29 -78
-28 -28 -101 -157 -101 -180 0 -6 -11 -21 -24 -33 -29 -27 -58 -22 -74 13 -21
46 -44 158 -40 196 2 26 -1 41 -9 44 -15 6 -17 42 -3 51 6 3 7 17 4 30 -4 17
2 32 24 56 l30 34 57 -30 c31 -16 67 -42 80 -57 22 -26 24 -26 39 -9 12 13 13
20 4 29 -7 7 -18 12 -26 12 -7 0 -32 13 -55 28 -44 29 -91 52 -108 52 -5 0
-21 -11 -34 -25z"/>
<path d="M3728 4761 c-24 -21 -30 -33 -22 -40 7 -8 17 -4 34 14 13 14 34 25
46 25 29 0 64 -44 64 -81 0 -19 5 -29 15 -29 38 0 26 56 -23 108 -38 40 -71
41 -114 3z"/>
<path d="M4006 4735 c-3 -9 0 -15 9 -15 8 0 15 7 15 15 0 8 -4 15 -9 15 -5 0
-11 -7 -15 -15z"/>
<path d="M4005 4671 c-6 -11 20 -33 28 -24 4 3 7 10 7 14 0 11 -29 19 -35 10z"/>
<path d="M3690 4665 c0 -3 16 -11 36 -20 19 -8 43 -24 53 -36 12 -15 24 -20
36 -15 17 6 17 7 -1 27 -25 28 -67 49 -99 49 -14 0 -25 -2 -25 -5z"/>
<path d="M4210 4651 c0 -19 29 -31 77 -31 58 0 69 12 26 28 -32 11 -103 14
-103 3z"/>
<path d="M3660 4625 c-10 -12 -9 -16 4 -21 9 -3 23 -3 32 0 13 5 14 9 4 21 -7
8 -16 15 -20 15 -4 0 -13 -7 -20 -15z"/>
<path d="M4010 4584 c0 -9 5 -14 12 -12 18 6 21 28 4 28 -9 0 -16 -7 -16 -16z"/>
<path d="M3995 4500 c-4 -7 -3 -16 3 -22 14 -14 45 -2 40 15 -6 16 -34 21 -43
7z"/>
<path d="M4012 4396 c1 -10 8 -17 13 -17 15 1 12 24 -3 29 -9 3 -13 -2 -10
-12z"/>
<path d="M4011 4321 c-8 -5 -11 -16 -8 -25 5 -14 11 -15 27 -6 21 11 23 31 4
37 -5 1 -15 -1 -23 -6z"/>
<path d="M4005 4230 c-9 -15 4 -30 27 -30 14 0 18 5 14 16 -3 9 -6 18 -6 20 0
8 -29 4 -35 -6z"/>
<path d="M4447 4234 c-14 -14 -7 -25 13 -22 12 2 21 8 21 13 0 12 -24 18 -34
9z"/>
<path d="M4011 4146 c-7 -8 -11 -30 -9 -48 2 -25 8 -33 23 -33 17 0 20 8 23
48 3 49 -12 63 -37 33z"/>
<path d="M4007 4023 c-3 -5 -2 -15 3 -22 10 -17 43 -6 38 12 -6 15 -34 22 -41
10z"/>
<path d="M4006 3944 c-32 -32 -5 -65 35 -44 23 13 25 46 3 54 -21 8 -20 8 -38
-10z"/>
<path d="M4004 3855 c-7 -18 3 -35 22 -35 20 0 30 30 13 41 -20 12 -29 11 -35
-6z"/>
<path d="M4001 3777 c-9 -11 -8 -17 3 -26 18 -15 48 -3 44 18 -4 21 -32 26
-47 8z"/>
<path d="M4636 3749 c-14 -21 -12 -49 4 -49 13 0 41 50 35 60 -10 16 -23 12
-39 -11z"/>
<path d="M4695 3740 c-10 -16 16 -43 28 -31 11 11 2 41 -12 41 -5 0 -13 -5
-16 -10z"/>
<path d="M3360 3710 c-11 -11 -20 -24 -20 -29 0 -19 20 -22 36 -7 20 20 40 20
48 1 9 -24 26 -17 26 10 0 43 -56 59 -90 25z"/>
<path d="M4006 3711 c-9 -14 5 -41 20 -41 20 0 30 30 13 41 -18 11 -26 11 -33
0z"/>
<path d="M3656 3686 c-23 -19 -12 -40 14 -26 43 23 104 2 181 -62 63 -51 81
-92 70 -152 -5 -25 -14 -52 -21 -60 -13 -17 -6 -36 14 -36 25 0 50 53 50 105
0 71 -34 125 -114 185 -53 39 -75 49 -120 54 -40 5 -60 3 -74 -8z"/>
<path d="M4004 3639 c-10 -17 13 -36 27 -22 12 12 4 33 -11 33 -5 0 -12 -5
-16 -11z"/>
<path d="M4000 3541 c0 -26 17 -36 36 -21 11 10 12 16 3 26 -17 20 -39 17 -39
-5z"/>
<path d="M3785 1130 c-3 -5 -1 -10 4 -10 6 0 11 5 11 10 0 6 -2 10 -4 10 -3 0
-8 -4 -11 -10z"/>
<path d="M2165 909 c-12 -19 5 -23 22 -6 16 16 16 17 1 17 -9 0 -20 -5 -23
-11z"/>
<path d="M2016 861 c-10 -11 -16 -27 -14 -37 3 -17 11 -23 62 -46 35 -16 36
-32 1 -36 -16 -2 -27 2 -31 12 -9 22 -34 20 -34 -3 0 -29 25 -43 72 -39 36 3
44 7 52 30 8 22 6 32 -9 48 -10 11 -26 20 -35 20 -9 0 -25 6 -36 14 -18 14
-18 15 0 22 10 4 27 2 37 -4 25 -16 39 -15 39 3 0 35 -76 47 -104 16z"/>
<path d="M2160 795 c0 -69 3 -85 15 -85 12 0 15 16 15 85 0 69 -3 85 -15 85
-12 0 -15 -16 -15 -85z"/>
<path d="M2227 873 c-4 -3 -7 -42 -7 -85 0 -71 2 -78 19 -78 17 0 20 8 23 48
l3 47 28 -47 c18 -32 35 -48 48 -48 18 0 20 6 17 83 -2 65 -6 82 -18 82 -10 0
-17 -14 -20 -47 l-5 -47 -30 50 c-28 46 -43 58 -58 42z"/>
<path d="M2390 865 c0 -8 9 -15 20 -15 18 0 20 -7 20 -70 0 -63 2 -70 20 -70
18 0 20 7 20 70 0 69 1 70 26 70 16 0 24 5 22 13 -3 7 -28 13 -66 15 -51 2
-62 0 -62 -13z"/>
<path d="M2556 859 c-21 -17 -26 -29 -26 -65 0 -57 25 -84 78 -84 62 0 97 59
72 121 -22 52 -77 65 -124 28z m82 -21 c7 -7 12 -26 12 -43 0 -37 -16 -55 -47
-55 -39 0 -58 64 -27 94 18 19 45 21 62 4z"/>
<path d="M2720 795 c0 -69 3 -85 15 -85 11 0 15 13 16 58 l1 57 15 -57 c11
-43 20 -58 33 -58 13 0 22 15 33 58 l15 57 1 -57 c1 -45 5 -58 16 -58 12 0 15
16 15 85 0 84 0 85 -25 85 -19 0 -26 -7 -34 -37 -6 -21 -11 -44 -11 -50 0 -7
-4 -13 -10 -13 -5 0 -10 6 -10 13 0 6 -5 29 -11 50 -8 30 -15 37 -34 37 -25 0
-25 -1 -25 -85z"/>
<path d="M2937 813 c-14 -38 -29 -76 -33 -85 -9 -26 22 -23 36 2 7 13 21 20
41 20 22 0 32 -5 36 -20 3 -12 14 -20 25 -20 15 0 18 5 14 18 -44 118 -61 152
-76 152 -12 0 -25 -21 -43 -67z m56 -13 c4 -15 0 -20 -14 -20 -21 0 -22 1 -13
24 8 22 21 20 27 -4z"/>
<path d="M3096 861 c-10 -11 -16 -27 -14 -37 3 -17 11 -23 62 -46 35 -16 36
-32 1 -36 -16 -2 -27 2 -31 12 -9 22 -34 20 -34 -3 0 -29 25 -43 72 -39 36 3
44 7 52 30 8 22 6 32 -9 48 -10 11 -26 20 -35 20 -9 0 -25 6 -36 14 -18 14
-18 15 0 22 10 4 27 2 37 -4 25 -16 39 -15 39 3 0 35 -76 47 -104 16z"/>
</g>
</svg>
